<svg width="1440" height="132" viewBox="0 0 1440 132" fill="none" xmlns="http://www.w3.org/2000/svg">
<path fill-rule="evenodd" clip-rule="evenodd" d="M0 102.658H12C22.8 102.658 45.6 102.658 68.4 83.0975C91.2 63.5364 114 24.4144 136.8 26.8595C159.6 29.3047 182.4 73.317 205.2 87.9877C228 102.658 252 87.9877 274.8 87.9877C297.6 87.9877 320.4 102.658 343.2 92.878C366 83.0975 388.8 48.8657 411.6 26.8595C434.4 4.8534 457.2 -4.92711 480 2.40827C502.8 9.74366 525.6 34.1949 548.4 46.4206C571.2 58.6462 594 58.6462 616.8 63.5364C639.6 68.4267 662.4 78.2072 685.2 75.7621C708 73.3169 732 58.6462 754.8 58.6462C777.6 58.6462 800.4 73.3169 823.2 83.0975C846 92.878 868.8 97.7682 891.6 92.878C914.4 87.9877 937.2 73.3169 960 75.7621C982.8 78.2072 1005.6 97.7682 1028.4 107.549C1051.2 117.329 1074 117.329 1096.8 97.7682C1119.6 78.2072 1142.4 39.0852 1165.2 39.0852C1188 39.0852 1212 78.2072 1234.8 78.2072C1257.6 78.2072 1280.4 39.0852 1303.2 26.8595C1326 14.6339 1348.8 29.3047 1371.6 34.1949C1394.4 39.0852 1417.2 34.1949 1428 31.7498L1440 29.3047V132H1428C1417.2 132 1394.4 132 1371.6 132C1348.8 132 1326 132 1303.2 132C1280.4 132 1257.6 132 1234.8 132C1212 132 1188 132 1165.2 132C1142.4 132 1119.6 132 1096.8 132C1074 132 1051.2 132 1028.4 132C1005.6 132 982.8 132 960 132C937.2 132 914.4 132 891.6 132C868.8 132 846 132 823.2 132C800.4 132 777.6 132 754.8 132C732 132 708 132 685.2 132C662.4 132 639.6 132 616.8 132C594 132 571.2 132 548.4 132C525.6 132 502.8 132 480 132C457.2 132 434.4 132 411.6 132C388.8 132 366 132 343.2 132C320.4 132 297.6 132 274.8 132C252 132 228 132 205.2 132C182.4 132 159.6 132 136.8 132C114 132 91.2 132 68.4 132C45.6 132 22.8 132 12 132H0V102.658Z" fill="#196191"/>
</svg>
