<svg width="1440" height="188" viewBox="0 0 1440 188" fill="none" xmlns="http://www.w3.org/2000/svg">
<path fill-rule="evenodd" clip-rule="evenodd" d="M0 0L13.2 25.0667C26.4 50.1333 52.8 100.267 80.4 103.4C106.8 106.533 133.2 62.6667 159.6 53.2667C187.2 43.8667 213.6 68.9333 240 75.2C266.4 81.4667 292.8 68.9333 320.4 56.4C346.8 43.8667 373.2 31.3333 399.6 47C427.2 62.6667 453.6 106.533 480 122.2C506.4 137.867 532.8 125.333 560.4 112.8C586.8 100.267 613.2 87.7333 639.6 97.1333C667.2 106.533 693.6 137.867 720 125.333C746.4 112.8 772.8 56.4 800.4 53.2667C826.8 50.1333 853.2 100.267 879.6 103.4C907.2 106.533 933.6 62.6667 960 40.7333C986.4 18.8 1012.8 18.8 1040.4 21.9333C1066.8 25.0667 1093.2 31.3333 1119.6 47C1147.2 62.6667 1173.6 87.7333 1200 103.4C1226.4 119.067 1252.8 125.333 1280.4 106.533C1306.8 87.7333 1333.2 43.8667 1359.6 34.4667C1387.2 25.0667 1413.6 50.1333 1426.8 62.6667L1440 75.2V188H1426.8C1413.6 188 1387.2 188 1359.6 188C1333.2 188 1306.8 188 1280.4 188C1252.8 188 1226.4 188 1200 188C1173.6 188 1147.2 188 1119.6 188C1093.2 188 1066.8 188 1040.4 188C1012.8 188 986.4 188 960 188C933.6 188 907.2 188 879.6 188C853.2 188 826.8 188 800.4 188C772.8 188 746.4 188 720 188C693.6 188 667.2 188 639.6 188C613.2 188 586.8 188 560.4 188C532.8 188 506.4 188 480 188C453.6 188 427.2 188 399.6 188C373.2 188 346.8 188 320.4 188C292.8 188 266.4 188 240 188C213.6 188 187.2 188 159.6 188C133.2 188 106.8 188 80.4 188C52.8 188 26.4 188 13.2 188H0V0Z" fill="#3094D7"/>
</svg>
